<svg width="110" height="40" viewBox="0 0 110 40" fill="none" xmlns="http://www.w3.org/2000/svg">
<g clip-path="url(#clip0_1_877)">
<path d="M54.6949 14.3228V14.8231C54.3455 14.8231 54.0357 14.8469 53.7657 14.8946C53.5116 14.9263 53.3369 15.0375 53.2416 15.2281C53.1622 15.4187 53.1939 15.7284 53.3369 16.1573L55.6002 23.2332L55.2905 23.5668L58.078 14.299L58.5545 14.5134L54.9093 26.6878C54.6552 26.6719 54.4011 26.664 54.1469 26.664C53.8928 26.664 53.6307 26.6719 53.3607 26.6878L49.5964 16.1573C49.374 15.522 49.1279 15.1408 48.8578 15.0137C48.6037 14.8866 48.3893 14.8231 48.2146 14.8231V14.3228C48.7228 14.3704 49.247 14.4101 49.787 14.4419C50.3429 14.4578 50.9465 14.4657 51.5977 14.4657C52.0901 14.4657 52.6063 14.4498 53.1463 14.4181C53.7022 14.3863 54.2184 14.3545 54.6949 14.3228ZM67.1314 14.3228V14.7993C66.8296 14.8787 66.5437 15.0613 66.2737 15.3472C66.0037 15.6331 65.7495 16.1335 65.5113 16.8482L62.3426 26.6878C62.0885 26.6719 61.8264 26.664 61.5564 26.664C61.3023 26.664 61.0481 26.6719 60.794 26.6878L57.4347 17.5153L58.078 14.299C58.3639 14.3148 58.6498 14.3228 58.9357 14.3228C59.2375 14.3069 59.5313 14.299 59.8172 14.299L63.0812 23.9241L62.8191 23.6621L64.4154 18.6112C64.6854 17.7377 64.7886 17.0309 64.7251 16.4908C64.6615 15.9508 64.4709 15.5458 64.1533 15.2758C63.8356 15.0058 63.4068 14.8469 62.8668 14.7993V14.3228C63.1209 14.3387 63.3909 14.3545 63.6768 14.3704C63.9786 14.3704 64.2724 14.3784 64.5583 14.3943C64.8601 14.3943 65.1142 14.3943 65.3207 14.3943C65.6384 14.3943 65.964 14.3863 66.2975 14.3704C66.6469 14.3545 66.9249 14.3387 67.1314 14.3228ZM73.5035 13.9892C74.9013 13.9892 75.9972 14.4022 76.7913 15.2281C77.5855 16.054 77.9826 17.4041 77.9826 19.2783H70.1443L70.0966 18.8256H74.9807C74.9965 18.0474 74.9489 17.3326 74.8377 16.6814C74.7265 16.0143 74.5518 15.4822 74.3136 15.0852C74.0753 14.6881 73.7577 14.4896 73.3606 14.4896C72.8047 14.4896 72.3282 14.839 71.9311 15.5378C71.5499 16.2367 71.3196 17.3962 71.2402 19.0162L71.3117 19.1592C71.2958 19.3498 71.2799 19.5483 71.264 19.7548C71.264 19.9613 71.264 20.1757 71.264 20.3981C71.264 21.494 71.4149 22.3835 71.7167 23.0664C72.0343 23.7494 72.4314 24.2497 72.9079 24.5674C73.3844 24.8692 73.8688 25.0201 74.3612 25.0201C74.6948 25.0201 75.0363 24.9724 75.3857 24.8771C75.751 24.7659 76.1163 24.5753 76.4816 24.3053C76.8469 24.0194 77.1884 23.6223 77.5061 23.1141L77.9349 23.257C77.7443 23.8606 77.4425 24.4483 77.0296 25.0201C76.6166 25.5919 76.0925 26.0604 75.4572 26.4257C74.8218 26.791 74.0594 26.9737 73.17 26.9737C72.0899 26.9737 71.137 26.7434 70.311 26.2828C69.4851 25.8222 68.8339 25.1233 68.3574 24.1862C67.8968 23.2491 67.6665 22.0579 67.6665 20.6125C67.6665 19.1354 67.9127 17.9044 68.4051 16.9197C68.9133 15.9349 69.6042 15.2043 70.4778 14.7278C71.3673 14.2354 72.3758 13.9892 73.5035 13.9892ZM87.4183 13.9892C87.9265 13.9892 88.3395 14.1004 88.6571 14.3228C88.9748 14.5293 89.2051 14.7993 89.3481 15.1328C89.5069 15.4664 89.5863 15.8158 89.5863 16.1811C89.5863 16.7688 89.4116 17.2532 89.0622 17.6344C88.7286 17.9997 88.2839 18.1824 87.728 18.1824C87.1721 18.1824 86.7353 18.0474 86.4176 17.7774C86.1158 17.4915 85.965 17.1182 85.965 16.6576C85.965 16.2129 86.0603 15.8476 86.2509 15.5617C86.4573 15.2599 86.7115 15.0058 87.0132 14.7993C86.7909 14.7357 86.5685 14.7437 86.3462 14.8231C86.0444 14.8707 85.7585 14.9978 85.4885 15.2043C85.2184 15.3949 84.9881 15.6411 84.7975 15.9429C84.6069 16.2288 84.4561 16.5464 84.3449 16.8958C84.2337 17.2294 84.1781 17.555 84.1781 17.8727V24.1862C84.1781 24.9486 84.3608 25.4648 84.7261 25.7348C85.1073 26.0048 85.6711 26.1398 86.4176 26.1398V26.6401C86.0523 26.6243 85.5202 26.6084 84.8214 26.5925C84.1225 26.5607 83.3919 26.5448 82.6295 26.5448C81.9942 26.5448 81.3509 26.5607 80.6997 26.5925C80.0485 26.6084 79.5561 26.6243 79.2226 26.6401V26.1398C79.7785 26.1398 80.1676 26.0207 80.39 25.7824C80.6282 25.5442 80.7474 25.0915 80.7474 24.4244V16.9197C80.7474 16.2049 80.6362 15.6808 80.4138 15.3472C80.2073 14.9978 79.8102 14.8231 79.2226 14.8231V14.3228C79.7308 14.3704 80.2232 14.3943 80.6997 14.3943C81.3668 14.3943 81.9862 14.3704 82.558 14.3228C83.1457 14.2592 83.6857 14.1719 84.1781 14.0607V16.2764C84.3687 15.8476 84.6228 15.4584 84.9405 15.109C85.2582 14.7596 85.6235 14.4896 86.0364 14.299C86.4494 14.0925 86.91 13.9892 87.4183 13.9892ZM94.5753 7.98542V24.4244C94.5753 25.0915 94.6786 25.5442 94.8851 25.7824C95.1074 26.0207 95.4807 26.1398 96.0048 26.1398V26.6401C95.703 26.6243 95.2583 26.6084 94.6706 26.5925C94.0988 26.5607 93.5112 26.5448 92.9076 26.5448C92.2882 26.5448 91.6608 26.5607 91.0255 26.5925C90.406 26.6084 89.9375 26.6243 89.6198 26.6401V26.1398C90.1757 26.1398 90.5649 26.0207 90.7872 25.7824C91.0255 25.5442 91.1446 25.0915 91.1446 24.4244V10.8444C91.1446 10.1296 91.0334 9.6055 90.811 9.27195C90.6046 8.92252 90.2075 8.74781 89.6198 8.74781V8.24749C90.1281 8.29514 90.6204 8.31896 91.0969 8.31896C91.7481 8.31896 92.3676 8.29514 92.9553 8.24749C93.5429 8.18396 94.083 8.0966 94.5753 7.98542ZM102.342 14.3228V14.7993C101.85 14.8946 101.357 15.1011 100.865 15.4187C100.373 15.7364 99.8724 16.1414 99.3641 16.6338L97.5296 18.5397L97.7678 18.0871L101.842 24.9009C102.017 25.1868 102.199 25.441 102.39 25.6633C102.58 25.8857 102.811 26.0445 103.081 26.1398V26.6401C102.843 26.6243 102.485 26.6084 102.009 26.5925C101.532 26.5607 101.056 26.5448 100.579 26.5448C99.9915 26.5448 99.4038 26.5607 98.8161 26.5925C98.2285 26.6084 97.7917 26.6243 97.5058 26.6401V26.1398C97.8234 26.1398 98.0379 26.0683 98.149 25.9254C98.2602 25.7666 98.2443 25.568 98.1014 25.3298L95.7428 21.0652C95.5522 20.7634 95.3616 20.5728 95.171 20.4934C94.9962 20.3981 94.758 20.3425 94.4562 20.3266V19.8739C94.7898 19.8422 95.0757 19.7866 95.3139 19.7072C95.568 19.6277 95.7983 19.4769 96.0048 19.2545L97.8155 17.4915C98.3555 16.9832 98.6255 16.5305 98.6255 16.1335C98.6255 15.7364 98.4508 15.4187 98.1014 15.1805C97.7678 14.9422 97.3231 14.8152 96.7672 14.7993V14.3228C97.2119 14.3387 97.6964 14.3545 98.2205 14.3704C98.7447 14.3863 99.1894 14.3943 99.5547 14.3943C99.8724 14.3943 100.206 14.3943 100.555 14.3943C100.921 14.3784 101.262 14.3704 101.58 14.3704C101.897 14.3545 102.152 14.3387 102.342 14.3228ZM106.773 8.17602C107.44 8.17602 107.964 8.34279 108.345 8.67633C108.742 8.994 108.941 9.43872 108.941 10.0105C108.941 10.5823 108.742 11.035 108.345 11.3685C107.964 11.6862 107.44 11.845 106.773 11.845C106.106 11.845 105.573 11.6862 105.176 11.3685C104.795 11.035 104.605 10.5823 104.605 10.0105C104.605 9.43872 104.795 8.994 105.176 8.67633C105.573 8.34279 106.106 8.17602 106.773 8.17602ZM108.631 14.0607V24.4244C108.631 25.0915 108.742 25.5442 108.965 25.7824C109.203 26.0207 109.6 26.1398 110.156 26.1398V26.6401C109.87 26.6243 109.425 26.6084 108.822 26.5925C108.218 26.5607 107.607 26.5448 106.987 26.5448C106.368 26.5448 105.74 26.5607 105.105 26.5925C104.47 26.6084 103.993 26.6243 103.675 26.6401V26.1398C104.231 26.1398 104.62 26.0207 104.843 25.7824C105.081 25.5442 105.2 25.0915 105.2 24.4244V16.9197C105.2 16.2049 105.089 15.6808 104.867 15.3472C104.66 14.9978 104.263 14.8231 103.675 14.8231V14.3228C104.184 14.3704 104.676 14.3943 105.153 14.3943C105.82 14.3943 106.439 14.3704 107.011 14.3228C107.599 14.2592 108.139 14.1719 108.631 14.0607Z" fill="black"/>
<g clip-path="url(#clip1_1_877)">
<rect width="40" height="40" fill="black"/>
<path d="M28.4241 26.1601L28.8561 26.2801C28.7281 27.1601 28.5281 27.9121 28.2561 28.5361C27.9841 29.1761 27.6321 29.6721 27.2001 30.0241C26.8641 30.2961 26.4241 30.5201 25.8801 30.6961C25.3521 30.8721 24.7601 30.9601 24.1041 30.9601C23.2241 30.9601 22.3601 30.8241 21.5121 30.5521C20.6801 30.2801 19.8321 29.9441 18.9681 29.5441C18.1041 29.1601 17.1921 28.7841 16.2321 28.4161C16.1201 28.3841 16.0081 28.3441 15.8961 28.2961C15.8001 28.2641 15.7201 28.2481 15.6561 28.2481C15.3521 28.3921 15.0161 28.5121 14.6481 28.6081C14.2961 28.7041 13.9601 28.7521 13.6401 28.7521C13.3201 28.7521 13.0481 28.7041 12.8241 28.6081C12.6161 28.5121 12.5121 28.3521 12.5121 28.1281C12.5121 27.6961 12.9521 27.4801 13.8321 27.4801C14.3921 27.4801 15.0001 27.5921 15.6561 27.8161C16.2481 27.6561 16.7521 27.4721 17.1681 27.2641C17.6001 27.0721 18.0401 26.8881 18.4881 26.7121C18.9521 26.5361 19.5121 26.4241 20.1681 26.3761L20.1921 26.7601C19.6801 26.8081 19.2401 26.8961 18.8721 27.0241C18.5201 27.1681 18.1601 27.3201 17.7921 27.4801C17.4241 27.6401 16.9921 27.7921 16.4961 27.9361C17.6321 28.0161 18.6881 28.0961 19.6641 28.1761C20.6401 28.2721 21.5441 28.3281 22.3761 28.3441C23.2081 28.3761 23.9601 28.3441 24.6321 28.2481C25.6241 28.1361 26.4081 27.9201 26.9841 27.6001C27.5601 27.2801 28.0401 26.8001 28.4241 26.1601ZM19.6161 9.12012C21.3121 9.12012 22.7921 9.46412 24.0561 10.1521C25.3361 10.8401 26.3281 11.8321 27.0321 13.1281C27.7361 14.4081 28.0881 15.9681 28.0881 17.8081C28.0881 19.6001 27.7281 21.1681 27.0081 22.5121C26.2881 23.8561 25.2801 24.9041 23.9841 25.6561C22.7041 26.4081 21.2401 26.7841 19.5921 26.7841C17.8961 26.7841 16.4081 26.4401 15.1281 25.7521C13.8641 25.0641 12.8801 24.0721 12.1761 22.7761C11.4721 21.4801 11.1201 19.9201 11.1201 18.0961C11.1201 16.3041 11.4801 14.7361 12.2001 13.3921C12.9361 12.0481 13.9361 11.0001 15.2001 10.2481C16.4801 9.49612 17.9521 9.12012 19.6161 9.12012ZM19.5201 9.55212C18.6241 9.55212 17.8401 9.91212 17.1681 10.6321C16.5121 11.3521 16.0001 12.3441 15.6321 13.6081C15.2801 14.8721 15.1041 16.3361 15.1041 18.0001C15.1041 19.6961 15.3041 21.1761 15.7041 22.4401C16.1201 23.6881 16.6721 24.6561 17.3601 25.3441C18.0641 26.0161 18.8401 26.3521 19.6881 26.3521C20.5841 26.3521 21.3601 25.9921 22.0161 25.2721C22.6881 24.5521 23.2001 23.5601 23.5521 22.2961C23.9201 21.0161 24.1041 19.5521 24.1041 17.9041C24.1041 16.1921 23.8961 14.7121 23.4801 13.4641C23.0801 12.2161 22.5281 11.2561 21.8241 10.5841C21.1361 9.89612 20.3681 9.55212 19.5201 9.55212Z" fill="white"/>
</g>
</g>
<defs>
<clipPath id="clip0_1_877">
<rect width="110" height="40" fill="white"/>
</clipPath>
<clipPath id="clip1_1_877">
<rect width="40" height="40" rx="6.96" fill="white"/>
</clipPath>
</defs>
</svg>
