<svg width="20" height="20" viewBox="0 0 20 20" fill="none" xmlns="http://www.w3.org/2000/svg">
<path d="M17.1111 4.60598L4.66667 16.7643C4.176 17.2437 3.37956 17.2437 2.88889 16.7643C2.39822 16.2849 2.39822 15.5068 2.88889 15.0274L15.3333 2.86907C15.824 2.38968 16.6204 2.38968 17.1111 2.86907C17.6018 3.34845 17.6018 4.12659 17.1111 4.60598Z" fill="white"/>
<path d="M17.1111 15.3941L4.66667 3.23579C4.176 2.75641 3.37956 2.75641 2.88889 3.23579C2.39822 3.71518 2.39822 4.49332 2.88889 4.9727L15.3333 17.1311C15.824 17.6104 16.6204 17.6104 17.1111 17.1311C17.6018 16.6517 17.6018 15.8735 17.1111 15.3941Z" fill="white"/>
</svg>
