<svg width="62" height="62" viewBox="0 0 62 62" fill="none" xmlns="http://www.w3.org/2000/svg">
<path d="M30.9999 12.4L27.0484 24.4136C26.8462 25.0284 26.5024 25.5872 26.0447 26.0449C25.5871 26.5025 25.0283 26.8463 24.4134 27.0486L12.3999 31L24.4134 34.9515C25.0283 35.1537 25.5871 35.4975 26.0447 35.9552C26.5024 36.4129 26.8462 36.9716 27.0484 37.5865L30.9999 49.6L34.9514 37.5865C35.1536 36.9716 35.4974 36.4129 35.9551 35.9552C36.4128 35.4975 36.9715 35.1537 37.5864 34.9515L49.5999 31L37.5864 27.0486C36.9715 26.8463 36.4128 26.5025 35.9551 26.0449C35.4974 25.5872 35.1536 25.0284 34.9514 24.4136L30.9999 12.4Z" stroke="black" stroke-width="4" stroke-linecap="round" stroke-linejoin="round"/>
<path d="M54.4666 50.3334V58.6" stroke="black" stroke-width="3" stroke-linecap="round" stroke-linejoin="round"/>
<path d="M50.3333 54.4667H58.5999" stroke="black" stroke-width="3" stroke-linecap="round" stroke-linejoin="round"/>
</svg>
