<svg width="40" height="40" viewBox="0 0 40 40" fill="none" xmlns="http://www.w3.org/2000/svg">
<path d="M20 8L17.4507 15.7507C17.3202 16.1473 17.0984 16.5078 16.8031 16.8031C16.5078 17.0984 16.1473 17.3202 15.7507 17.4507L8 20L15.7507 22.5493C16.1473 22.6798 16.5078 22.9016 16.8031 23.1969C17.0984 23.4922 17.3202 23.8527 17.4507 24.2493L20 32L22.5493 24.2493C22.6798 23.8527 22.9016 23.4922 23.1969 23.1969C23.4922 22.9016 23.8527 22.6798 24.2493 22.5493L32 20L24.2493 17.4507C23.8527 17.3202 23.4922 17.0984 23.1969 16.8031C22.9016 16.5078 22.6798 16.1473 22.5493 15.7507L20 8Z" stroke="white" stroke-width="2" stroke-linecap="round" stroke-linejoin="round"/>
<path d="M10.6665 8V13.3333" stroke="white" stroke-width="2" stroke-linecap="round" stroke-linejoin="round"/>
<path d="M29.3335 26.6665V31.9998" stroke="white" stroke-width="2" stroke-linecap="round" stroke-linejoin="round"/>
<path d="M8 10.6665H13.3333" stroke="white" stroke-width="2" stroke-linecap="round" stroke-linejoin="round"/>
<path d="M26.6665 29.3335H31.9998" stroke="white" stroke-width="2" stroke-linecap="round" stroke-linejoin="round"/>
</svg>
