<svg width="40" height="40" viewBox="0 0 40 40" fill="none" xmlns="http://www.w3.org/2000/svg">
<g clip-path="url(#clip0_203_160)">
<rect width="40" height="40" fill="black"/>
<path d="M28.4241 26.1601L28.8561 26.2801C28.7281 27.1601 28.5281 27.9121 28.2561 28.5361C27.9841 29.1761 27.6321 29.6721 27.2001 30.0241C26.8641 30.2961 26.4241 30.5201 25.8801 30.6961C25.3521 30.8721 24.7601 30.9601 24.1041 30.9601C23.2241 30.9601 22.3601 30.8241 21.5121 30.5521C20.6801 30.2801 19.8321 29.9441 18.9681 29.5441C18.1041 29.1601 17.1921 28.7841 16.2321 28.4161C16.1201 28.3841 16.0081 28.3441 15.8961 28.2961C15.8001 28.2641 15.7201 28.2481 15.6561 28.2481C15.3521 28.3921 15.0161 28.5121 14.6481 28.6081C14.2961 28.7041 13.9601 28.7521 13.6401 28.7521C13.3201 28.7521 13.0481 28.7041 12.8241 28.6081C12.6161 28.5121 12.5121 28.3521 12.5121 28.1281C12.5121 27.6961 12.9521 27.4801 13.8321 27.4801C14.3921 27.4801 15.0001 27.5921 15.6561 27.8161C16.2481 27.6561 16.7521 27.4721 17.1681 27.2641C17.6001 27.0721 18.0401 26.8881 18.4881 26.7121C18.9521 26.5361 19.5121 26.4241 20.1681 26.3761L20.1921 26.7601C19.6801 26.8081 19.2401 26.8961 18.8721 27.0241C18.5201 27.1681 18.1601 27.3201 17.7921 27.4801C17.4241 27.6401 16.9921 27.7921 16.4961 27.9361C17.6321 28.0161 18.6881 28.0961 19.6641 28.1761C20.6401 28.2721 21.5441 28.3281 22.3761 28.3441C23.2081 28.3761 23.9601 28.3441 24.6321 28.2481C25.6241 28.1361 26.4081 27.9201 26.9841 27.6001C27.5601 27.2801 28.0401 26.8001 28.4241 26.1601ZM19.6161 9.12012C21.3121 9.12012 22.7921 9.46412 24.0561 10.1521C25.3361 10.8401 26.3281 11.8321 27.0321 13.1281C27.7361 14.4081 28.0881 15.9681 28.0881 17.8081C28.0881 19.6001 27.7281 21.1681 27.0081 22.5121C26.2881 23.8561 25.2801 24.9041 23.9841 25.6561C22.7041 26.4081 21.2401 26.7841 19.5921 26.7841C17.8961 26.7841 16.4081 26.4401 15.1281 25.7521C13.8641 25.0641 12.8801 24.0721 12.1761 22.7761C11.4721 21.4801 11.1201 19.9201 11.1201 18.0961C11.1201 16.3041 11.4801 14.7361 12.2001 13.3921C12.9361 12.0481 13.9361 11.0001 15.2001 10.2481C16.4801 9.49612 17.9521 9.12012 19.6161 9.12012ZM19.5201 9.55212C18.6241 9.55212 17.8401 9.91212 17.1681 10.6321C16.5121 11.3521 16.0001 12.3441 15.6321 13.6081C15.2801 14.8721 15.1041 16.3361 15.1041 18.0001C15.1041 19.6961 15.3041 21.1761 15.7041 22.4401C16.1201 23.6881 16.6721 24.6561 17.3601 25.3441C18.0641 26.0161 18.8401 26.3521 19.6881 26.3521C20.5841 26.3521 21.3601 25.9921 22.0161 25.2721C22.6881 24.5521 23.2001 23.5601 23.5521 22.2961C23.9201 21.0161 24.1041 19.5521 24.1041 17.9041C24.1041 16.1921 23.8961 14.7121 23.4801 13.4641C23.0801 12.2161 22.5281 11.2561 21.8241 10.5841C21.1361 9.89612 20.3681 9.55212 19.5201 9.55212Z" fill="white"/>
</g>
<defs>
<clipPath id="clip0_203_160">
<rect width="40" height="40" rx="6.96" fill="white"/>
</clipPath>
</defs>
</svg>
