<svg width="18" height="20" viewBox="0 0 18 20" fill="none" xmlns="http://www.w3.org/2000/svg">
<path d="M4.02911 17.5003H0.297321V5.81675H4.02911V17.5003ZM2.16121 4.223C0.967902 4.223 0 3.26206 0 2.1019C8.54116e-09 1.54464 0.227698 1.0102 0.633002 0.616151C1.03831 0.222105 1.58802 0.000732422 2.16121 0.000732422C2.73439 0.000732422 3.2841 0.222105 3.68941 0.616151C4.09471 1.0102 4.32241 1.54464 4.32241 2.1019C4.32241 3.26206 3.35411 4.223 2.16121 4.223ZM17.996 17.5003H14.2722V11.8128C14.2722 10.4574 14.2441 8.71909 12.332 8.71909C10.3918 8.71909 10.0945 10.1917 10.0945 11.7152V17.5003H6.3667V5.81675H9.9458V7.4105H9.99804C10.4963 6.49253 11.7133 5.52378 13.5289 5.52378C17.3057 5.52378 18 7.94175 18 11.0824V17.5003H17.996Z" fill="white"/>
</svg>
